# xmcd CD database file
#
# Track frame offsets:
#	150
#	27582
#	64256
#	101817
#	134977
#	172002
#	206759
#
# Disc length: 3121 seconds
#
# Revision: 0
# Processed by: cddbd v1.4PL0 Copyright (c) Steve Scherf et al.
# Submitted via: CDex 1.50beta9
#
DISCID=730c2f07
DTITLE=Dave Stryker - The Stryker-Slagle Band
DYEAR=1900
DGENRE=Jazz
TTITLE0=Nothin'Wrong With It
TTITLE1=Child's Play
TTITLE2=Every Dark Street
TTITLE3=Highlife
TTITLE4=Tudo Muda(Everything Changes)
TTITLE5=Hands Of The Sculptress
TTITLE6=Long Gone
EXTD=
EXTT0=
EXTT1=
EXTT2=
EXTT3=
EXTT4=
EXTT5=
EXTT6=
PLAYORDER=
